<?xml version="1.0" encoding="UTF-8" standalone="no"?>
<svg
   xmlns:dc="http://purl.org/dc/elements/1.1/"
   xmlns:cc="http://creativecommons.org/ns#"
   xmlns:rdf="http://www.w3.org/1999/02/22-rdf-syntax-ns#"
   xmlns:svg="http://www.w3.org/2000/svg"
   xmlns="http://www.w3.org/2000/svg"
   viewBox="0 0 1122.52 793.70135"
   height="793.70135"
   width="1122.52"
   xml:space="preserve"
   id="svg2"
   version="1.1"><metadata
     id="metadata8"><rdf:RDF><cc:Work
         rdf:about=""><dc:format>image/svg+xml</dc:format><dc:type
           rdf:resource="http://purl.org/dc/dcmitype/StillImage" /><dc:title></dc:title></cc:Work></rdf:RDF></metadata><defs
     id="defs6"><clipPath
       id="clipPath18"
       clipPathUnits="userSpaceOnUse"><path
         id="path16"
         d="m 235.633,303.938 c 0,-113.248 91.806,-205.054 205.054,-205.054 v 0 c 113.247,0 205.053,91.806 205.053,205.054 v 0 c 0,113.248 -91.806,205.054 -205.053,205.054 v 0 c -113.248,0 -205.054,-91.806 -205.054,-205.054" /></clipPath><linearGradient
       id="linearGradient28"
       spreadMethod="pad"
       gradientTransform="matrix(0,-410.10739,-410.10739,0,440.68619,508.9917)"
       gradientUnits="userSpaceOnUse"
       y2="0"
       x2="1"
       y1="0"
       x1="0"><stop
         id="stop24"
         offset="0"
         style="stop-opacity:1;stop-color:#f6eb13" /><stop
         id="stop26"
         offset="1"
         style="stop-opacity:1;stop-color:#28aae1" /></linearGradient><clipPath
       id="clipPath38"
       clipPathUnits="userSpaceOnUse"><path
         id="path36"
         d="M 0,595.276 H 841.89 V 0 H 0 Z" /></clipPath></defs><g
     transform="matrix(1.3333333,0,0,-1.3333333,0,793.70133)"
     id="g10"><g
       id="g12"><g
         clip-path="url(#clipPath18)"
         id="g14"><g
           id="g20"><g
             id="g22"><path
               id="path30"
               style="fill:url(#linearGradient28);stroke:none"
               d="m 235.633,303.938 c 0,-113.248 91.806,-205.054 205.054,-205.054 v 0 c 113.247,0 205.053,91.806 205.053,205.054 v 0 c 0,113.248 -91.806,205.054 -205.053,205.054 v 0 c -113.248,0 -205.054,-91.806 -205.054,-205.054" /></g></g></g></g><g
       id="g32"><g
         clip-path="url(#clipPath38)"
         id="g34"><g
           transform="translate(621.1494,284.718)"
           id="g40"><path
             id="path42"
             style="fill:#ffffff;fill-opacity:1;fill-rule:nonzero;stroke:none"
             d="m 0,0 c -0.602,0.256 -1.204,0.511 -1.806,0.767 -14.673,-26.423 -29.346,-52.847 -44.019,-79.27 0.404,-0.264 0.808,-0.526 1.213,-0.79 3.851,4.894 8.447,9.375 11.419,14.755 10.908,19.74 21.297,39.769 31.808,59.728 0.761,1.446 0.937,3.2 1.385,4.81 m 27.948,-79.503 c 0.257,0.057 0.514,0.114 0.771,0.171 -0.072,0.789 -0.103,1.584 -0.221,2.366 -5.733,37.946 -11.474,75.893 -17.219,113.838 -0.229,1.51 -0.28,3.114 -0.864,4.483 -0.473,1.107 -1.52,2.537 -2.502,2.701 C 6.918,44.222 5.315,43.286 4.642,42.354 2.957,40.025 1.849,37.279 0.148,34.964 -3.72,29.696 -3.794,24.472 -1.812,18.234 5.901,-6.042 13.074,-30.489 20.455,-54.871 c 2.486,-8.214 4.994,-16.421 7.493,-24.632 m 4.87,-3.163 c 0.336,0.088 0.673,0.176 1.01,0.265 -1.241,42.418 -2.416,84.839 -3.908,127.248 -0.08,2.275 -2.564,4.723 -4.428,6.592 -1.362,1.366 -3.525,1.955 -5.366,2.815 -4.765,2.227 -9.549,4.413 -14.325,6.615 0.095,-2.411 0.609,-4.01 1.703,-4.885 4.997,-3.995 5.799,-9.55 6.611,-15.389 4.073,-29.273 8.271,-58.529 12.622,-87.761 1.768,-11.872 4.039,-23.669 6.081,-35.5 m -226.325,-53.449 c 18.52,-23 36.002,-44.713 53.485,-66.425 0.443,0.163 0.886,0.327 1.33,0.49 -0.009,24.113 -0.018,48.227 -0.028,72.984 -18.54,-2.386 -35.952,-4.626 -54.787,-7.049 M -6.795,21.501 c -1.684,-2.604 -2.746,-4.036 -3.593,-5.585 -34.129,-62.449 -68.241,-124.908 -102.345,-187.37 -4.559,-8.349 -9.189,-16.662 -13.483,-25.145 -0.706,-1.395 0.161,-3.588 0.302,-5.411 1.519,0.715 3.527,1.042 4.468,2.221 2.636,3.307 5.061,6.833 7.17,10.503 36.379,63.322 72.618,126.724 109.134,189.967 4.26,7.377 0.955,13.108 -1.653,20.82 m -184.978,35.426 c -0.171,-2.078 -0.304,-2.446 -0.211,-2.742 12.616,-40.307 25.259,-80.605 37.86,-120.916 1.043,-3.337 2.952,-4.231 5.523,-1.885 7.103,6.482 13.921,13.278 21.07,19.708 3.642,3.275 3.798,6.035 0.79,9.928 -17.342,22.439 -33.069,45.917 -46.671,70.874 -4.71,8.641 -11.675,16.051 -18.361,25.033 m 231.085,43.05 c -0.333,0.256 -0.664,0.512 -0.996,0.769 -2.089,-1.295 -4.237,-2.505 -6.258,-3.896 -47.26,-32.512 -94.512,-65.037 -141.749,-97.581 -6.707,-4.622 -13.392,-9.281 -19.979,-14.071 -5.403,-3.928 -5.574,-5.541 -1.749,-10.746 2.411,-3.282 4.815,-6.57 7.228,-9.85 4.057,-5.517 4.067,-5.441 8.844,-0.463 12.335,12.852 24.293,26.113 37.235,38.328 22.825,21.542 46.301,42.392 69.416,63.629 3.314,3.045 6.618,3.78 10.649,1.902 5.692,-2.652 11.484,-5.099 17.106,-7.889 3.309,-1.643 5.167,-1.262 6.539,2.455 4.054,10.984 8.394,21.864 12.563,32.807 0.56,1.468 0.776,3.067 1.151,4.606 M -281.426,-27.756 c 1.403,1.082 2.159,1.47 2.652,2.073 10.851,13.287 21.636,26.628 32.529,39.881 2.187,2.66 1.812,5.103 0.608,8.002 -27.299,65.723 -54.538,131.471 -81.803,197.209 -0.519,1.252 -1.205,2.434 -1.812,3.649 15.487,-83.582 28.519,-167.442 47.826,-250.814 m 146.082,-173.512 c 0.587,-0.214 1.175,-0.429 1.762,-0.644 1.354,2.232 2.86,4.388 4.038,6.709 6.682,13.169 12.864,26.609 19.985,39.535 36.692,66.602 73.617,133.074 110.461,199.592 4.294,7.752 4.058,7.517 -2.221,14.006 -3.686,3.807 -6.083,3.19 -9.566,-0.127 C -22.066,47.154 -33.256,36.49 -44.899,26.357 -80.94,-5.008 -113.96,-39.382 -146.325,-74.434 c -2.754,-2.982 -3.505,-5.753 -2.152,-9.622 4.203,-12.015 8.258,-24.087 12.095,-36.223 1.102,-3.486 1.793,-7.269 1.778,-10.911 -0.069,-16.284 -0.498,-32.566 -0.722,-48.85 -0.098,-7.074 -0.017,-14.151 -0.018,-21.228 m -3.953,77.744 c -0.922,2.909 -1.411,4.5 -1.928,6.082 -11.174,34.217 -22.515,68.382 -33.473,102.671 -7.65,23.936 -14.752,48.048 -22.15,72.066 -1.991,6.463 -4.677,7.291 -9.777,2.807 -2.648,-2.329 -4.991,-5.076 -7.145,-7.885 -13.629,-17.78 -27.069,-35.706 -40.771,-53.43 -8.408,-10.875 -17.37,-21.324 -25.693,-32.263 -4.423,-5.811 -4.016,-8.087 0.269,-14.138 7.26,-10.255 14.373,-20.621 21.929,-30.654 2.007,-2.665 5.099,-5.128 8.211,-6.252 34.814,-12.578 69.728,-24.878 104.622,-37.238 1.539,-0.546 3.131,-0.942 5.906,-1.766 m -422.596,93.105 c -0.031,-0.364 -0.064,-0.728 -0.095,-1.093 0.744,-0.35 1.467,-0.757 2.235,-1.041 36.31,-13.43 72.22,-28.094 109.024,-40.001 67.843,-21.948 136.196,-42.322 204.394,-63.165 4.077,-1.246 8.754,-1.598 12.991,-1.073 27.129,3.365 54.212,7.087 81.308,10.719 1.277,0.172 2.52,0.602 5.18,1.258 -2.736,1.169 -4.186,1.881 -5.699,2.419 -32.635,11.608 -65.256,23.26 -97.945,34.713 -4.733,1.659 -8.256,4.239 -11.087,8.346 -7.32,10.624 -14.798,21.145 -22.436,31.541 -1.616,2.198 -3.987,4.939 -6.348,5.316 -17.578,2.815 -35.18,6.45 -52.892,7.261 -36.265,1.663 -72.604,1.669 -108.91,2.457 -30.879,0.67 -61.754,1.495 -92.632,2.216 -5.694,0.133 -11.391,0.089 -17.088,0.127 m 227.043,277.783 c 31.092,-74.977 62.183,-149.954 93.725,-226.016 2.221,2.384 3.927,3.874 5.221,5.662 6.774,9.354 13.347,18.854 20.198,28.15 2.501,3.393 5.385,6.562 8.433,9.481 5.129,4.912 10.677,4.323 15.382,-0.956 15.953,-17.897 27.528,-38.645 39.259,-59.339 3.665,-6.466 8.397,-12.348 12.922,-18.283 0.691,-0.906 3.465,-1.426 4.355,-0.805 20.457,14.28 40.674,28.905 61.166,43.136 35.431,24.607 70.995,49.025 106.589,73.398 2.542,1.74 5.093,5.824 8.775,3.058 4.003,-3.006 1.039,-6.925 -0.178,-10.226 -3.934,-10.677 -8.071,-21.28 -12.249,-31.865 -1.311,-3.32 -1.177,-5.772 1.506,-8.69 1.832,-1.992 2.729,-5.477 2.825,-8.336 1.256,-37.333 2.289,-74.673 3.389,-112.011 0.255,-8.657 0.757,-17.314 0.677,-25.966 -0.022,-2.31 -1.296,-6.119 -2.831,-6.605 -3.727,-1.18 -5.022,2.313 -5.945,5.358 -8.025,26.496 -16.04,52.995 -24.086,79.484 -0.616,2.03 -1.438,3.999 -2.645,7.315 -1.778,-2.952 -2.948,-4.711 -3.937,-6.568 -6.15,-11.541 -12.586,-22.946 -18.302,-34.7 -7.339,-15.095 -16.591,-28.701 -27.962,-41.073 -5.462,-5.943 -10.119,-12.78 -14.292,-19.723 -16.888,-28.093 -33.413,-56.403 -50.165,-84.578 -2.335,-3.929 -5.153,-7.576 -7.823,-11.3 -2.009,-2.802 -4.405,-4.337 -7.687,-1.75 -2.871,2.264 -4.401,-0.039 -5.763,-1.908 -2.514,-3.448 -4.314,-3.782 -7.284,-0.061 -17.996,22.553 -36.28,44.876 -54.338,67.381 -2.578,3.213 -5.402,4.056 -9.315,3.485 -10.419,-1.521 -20.853,-3.035 -31.332,-3.993 -4.258,-0.39 -8.881,-0.083 -12.944,1.178 -59.37,18.417 -118.741,36.838 -177.967,55.711 -33.653,10.724 -67.159,21.941 -100.494,33.615 -12.457,4.363 -24.219,10.7 -36.34,16.041 -4.182,1.843 -8.513,3.347 -12.729,5.121 -1.129,0.475 -2.08,1.372 -3.113,2.075 1.126,0.796 2.237,2.254 3.38,2.279 7.29,0.16 14.59,0.093 21.883,-0.061 44.294,-0.928 88.587,-1.901 132.881,-2.859 28.341,-0.613 56.697,-0.867 85.018,-2.007 12.512,-0.503 24.954,-2.797 37.426,-4.295 1.179,-0.14 2.339,-0.428 3.516,-0.595 9.921,-1.408 10.709,-0.604 8.815,9.324 -16.52,86.578 -33.057,173.154 -49.579,259.732 -0.509,2.669 -1.176,5.345 -1.288,8.037 -0.073,1.759 0.725,3.553 1.134,5.332 0.704,0.072 1.408,0.144 2.113,0.216" /></g><g
           transform="translate(59.2568,254.299)"
           id="g44"><path
             id="path46"
             style="fill:#f04c22;fill-opacity:1;fill-rule:nonzero;stroke:none"
             d="m 0,0 c 5.696,-0.038 11.394,0.006 17.088,-0.127 30.878,-0.721 61.753,-1.546 92.631,-2.216 36.306,-0.788 72.646,-0.794 108.91,-2.457 17.712,-0.811 35.314,-4.446 52.893,-7.261 2.361,-0.377 4.732,-3.118 6.347,-5.316 7.639,-10.396 15.116,-20.917 22.437,-31.541 2.83,-4.107 6.354,-6.687 11.086,-8.346 32.69,-11.453 65.31,-23.105 97.946,-34.713 1.513,-0.538 2.963,-1.251 5.698,-2.419 -2.659,-0.656 -3.902,-1.086 -5.18,-1.258 -27.095,-3.632 -54.179,-7.354 -81.307,-10.719 -4.237,-0.525 -8.915,-0.173 -12.991,1.073 -68.199,20.843 -136.552,41.217 -204.395,63.165 C 74.36,-30.229 38.449,-15.564 2.14,-2.134 1.371,-1.85 0.648,-1.443 -0.096,-1.093 -0.064,-0.729 -0.032,-0.364 0,0" /></g><g
           transform="translate(481.8525,161.1936)"
           id="g48"><path
             id="path50"
             style="fill:#f04c22;fill-opacity:1;fill-rule:nonzero;stroke:none"
             d="m 0,0 c -2.775,0.824 -4.367,1.221 -5.906,1.767 -34.894,12.359 -69.808,24.66 -104.622,37.238 -3.112,1.124 -6.204,3.587 -8.211,6.252 -7.556,10.032 -14.669,20.398 -21.929,30.653 -4.285,6.052 -4.692,8.327 -0.269,14.139 8.323,10.938 17.285,21.388 25.693,32.263 13.702,17.723 27.142,35.649 40.771,53.429 2.154,2.809 4.496,5.556 7.145,7.885 5.1,4.484 7.786,3.657 9.777,-2.807 7.398,-24.018 14.5,-48.13 22.15,-72.066 C -24.443,74.465 -13.103,40.3 -1.928,6.082 -1.411,4.5 -0.922,2.909 0,0" /></g><g
           transform="translate(485.8057,83.4504)"
           id="g52"><path
             id="path54"
             style="fill:#f04c22;fill-opacity:1;fill-rule:nonzero;stroke:none"
             d="m 0,0 c 0.001,7.076 -0.08,14.153 0.018,21.228 0.224,16.284 0.653,32.566 0.722,48.849 0.015,3.643 -0.677,7.426 -1.778,10.911 -3.837,12.137 -7.893,24.208 -12.095,36.224 -1.353,3.869 -0.602,6.64 2.152,9.622 32.365,35.052 65.384,69.426 101.425,100.791 11.644,10.132 22.833,20.797 34.015,31.445 3.482,3.317 5.88,3.935 9.565,0.127 6.28,-6.488 6.516,-6.254 2.222,-14.006 C 99.401,178.674 62.477,112.201 25.785,45.6 18.664,32.674 12.481,19.233 5.8,6.064 4.622,3.743 3.116,1.588 1.762,-0.645 1.175,-0.43 0.587,-0.215 0,0" /></g><g
           transform="translate(339.7231,256.9621)"
           id="g56"><path
             id="path58"
             style="fill:#f04c22;fill-opacity:1;fill-rule:nonzero;stroke:none"
             d="m 0,0 c -19.307,83.372 -32.339,167.231 -47.826,250.813 0.608,-1.214 1.293,-2.396 1.812,-3.648 C -18.749,181.427 8.491,115.679 35.79,49.956 36.994,47.057 37.368,44.614 35.182,41.954 24.288,28.701 13.503,15.36 2.652,2.073 2.16,1.47 1.403,1.082 0,0" /></g><g
           transform="translate(660.4609,384.6945)"
           id="g60"><path
             id="path62"
             style="fill:#f04c22;fill-opacity:1;fill-rule:nonzero;stroke:none"
             d="m 0,0 c -0.375,-1.539 -0.591,-3.138 -1.15,-4.606 -4.169,-10.943 -8.509,-21.822 -12.564,-32.807 -1.372,-3.717 -3.229,-4.097 -6.539,-2.455 -5.622,2.79 -11.414,5.238 -17.105,7.889 -4.032,1.878 -7.335,1.144 -10.65,-1.901 -23.114,-21.238 -46.591,-42.088 -69.416,-63.63 -12.941,-12.215 -24.899,-25.475 -37.234,-38.328 -4.778,-4.977 -4.787,-5.054 -8.845,0.463 -2.413,3.28 -4.816,6.568 -7.227,9.851 -3.826,5.205 -3.655,6.817 1.749,10.746 6.586,4.79 13.271,9.449 19.978,14.07 47.237,32.545 94.489,65.069 141.749,97.582 2.022,1.391 4.169,2.601 6.259,3.895 C -0.663,0.513 -0.332,0.256 0,0" /></g><g
           transform="translate(429.376,341.6452)"
           id="g64"><path
             id="path66"
             style="fill:#f04c22;fill-opacity:1;fill-rule:nonzero;stroke:none"
             d="m 0,0 c 6.687,-8.982 13.651,-16.393 18.361,-25.033 13.603,-24.958 29.329,-48.435 46.671,-70.875 3.008,-3.892 2.853,-6.652 -0.79,-9.927 -7.148,-6.43 -13.967,-13.226 -21.069,-19.708 -2.571,-2.346 -4.481,-1.453 -5.524,1.884 -12.6,40.312 -25.244,80.61 -37.86,120.916 C -0.304,-2.446 -0.171,-2.079 0,0" /></g><g
           transform="translate(614.3545,306.2195)"
           id="g68"><path
             id="path70"
             style="fill:#f04c22;fill-opacity:1;fill-rule:nonzero;stroke:none"
             d="m 0,0 c 2.608,-7.712 5.913,-13.444 1.653,-20.821 -36.516,-63.242 -72.756,-126.644 -109.134,-189.967 -2.109,-3.67 -4.534,-7.196 -7.17,-10.503 -0.941,-1.178 -2.949,-1.505 -4.468,-2.22 -0.141,1.823 -1.008,4.015 -0.302,5.411 4.294,8.482 8.924,16.796 13.483,25.144 34.104,62.462 68.216,124.921 102.345,187.371 C -2.746,-4.036 -1.685,-2.604 0,0" /></g><g
           transform="translate(427.6426,148.6027)"
           id="g72"><path
             id="path74"
             style="fill:#f04c22;fill-opacity:1;fill-rule:nonzero;stroke:none"
             d="m 0,0 c 18.835,2.423 36.247,4.663 54.787,7.049 0.01,-24.757 0.019,-48.87 0.027,-72.984 -0.443,-0.163 -0.886,-0.327 -1.33,-0.49 C 36.002,-44.713 18.52,-23 0,0" /></g><g
           transform="translate(653.9678,202.052)"
           id="g76"><path
             id="path78"
             style="fill:#f04c22;fill-opacity:1;fill-rule:nonzero;stroke:none"
             d="m 0,0 c -2.042,11.831 -4.313,23.628 -6.081,35.5 -4.352,29.232 -8.549,58.488 -12.622,87.761 -0.813,5.839 -1.614,11.394 -6.611,15.389 -1.094,0.875 -1.609,2.474 -1.704,4.885 4.777,-2.202 9.561,-4.388 14.326,-6.615 1.84,-0.86 4.004,-1.449 5.366,-2.815 1.864,-1.869 4.347,-4.317 4.428,-6.592 C -1.406,85.104 -0.231,42.683 1.01,0.265 0.673,0.176 0.336,0.088 0,0" /></g><g
           transform="translate(649.0977,205.215)"
           id="g80"><path
             id="path82"
             style="fill:#f04c22;fill-opacity:1;fill-rule:nonzero;stroke:none"
             d="m 0,0 c -2.499,8.211 -5.007,16.418 -7.493,24.632 -7.381,24.382 -14.554,48.829 -22.267,73.105 -1.982,6.238 -1.908,11.462 1.96,16.73 1.7,2.315 2.809,5.061 4.493,7.389 0.674,0.933 2.277,1.869 3.272,1.703 0.981,-0.164 2.029,-1.594 2.502,-2.701 0.584,-1.369 0.635,-2.973 0.864,-4.483 C -10.924,78.43 -5.184,40.483 0.55,2.537 0.668,1.755 0.699,0.96 0.771,0.171 0.514,0.114 0.257,0.057 0,0" /></g><g
           transform="translate(621.1494,284.718)"
           id="g84"><path
             id="path86"
             style="fill:#f04c22;fill-opacity:1;fill-rule:nonzero;stroke:none"
             d="m 0,0 c -0.448,-1.61 -0.624,-3.364 -1.385,-4.81 -10.511,-19.959 -20.9,-39.988 -31.808,-59.728 -2.972,-5.38 -7.568,-9.861 -11.419,-14.755 -0.405,0.264 -0.809,0.526 -1.213,0.79 14.673,26.423 29.346,52.847 44.019,79.27 C -1.204,0.511 -0.602,0.256 0,0" /></g><g
           transform="translate(570.3496,380.841)"
           id="g88"><path
             id="path90"
             style="fill:#ffffff;fill-opacity:1;fill-rule:nonzero;stroke:none"
             d="M 0,0 V 5.175 H -13.614 V -13.054 H 0.383 v 5.176 h -7.241 v 1.631 h 5.405 v 4.692 H -6.858 V 0 Z" /></g><g
           transform="translate(547.46,373.6511)"
           id="g92"><path
             id="path94"
             style="fill:#ffffff;fill-opacity:1;fill-rule:nonzero;stroke:none"
             d="m 0,0 c 0,-0.918 -0.535,-1.479 -1.683,-1.479 h -1.223 v 3.034 h 1.147 C -0.484,1.555 0,1.02 0,0.102 Z m -2.906,8.006 h 1.325 c 1.097,0 1.505,-0.434 1.505,-1.25 V 6.654 c 0,-0.816 -0.434,-1.173 -1.505,-1.173 H -2.906 Z M 6.298,7.47 V 7.572 C 6.298,10.02 4.793,12.365 0,12.365 H -9.51 V -5.864 h 9.23 c 4.971,0 6.96,1.887 6.96,5.073 v 0.103 c 0,2.6 -1.632,3.926 -3.646,4.207 2.014,0.433 3.264,1.708 3.264,3.951" /></g><g
           transform="translate(496.8613,386.0163)"
           id="g96"><path
             id="path98"
             style="fill:#ffffff;fill-opacity:1;fill-rule:nonzero;stroke:none"
             d="m 0,0 v -18.229 h 6.808 v 6.552 l 3.773,-6.552 h 7.776 L 12.085,-8.286 18.025,0 H 11.04 L 6.808,-6.221 V 0 Z" /></g><g
           transform="translate(486.4746,372.1467)"
           id="g100"><path
             id="path102"
             style="fill:#ffffff;fill-opacity:1;fill-rule:nonzero;stroke:none"
             d="m 0,0 c -1.377,0 -1.861,0.688 -1.912,1.555 h -6.4 C -8.261,-2.83 -5.201,-4.716 0,-4.716 c 5.252,0 7.904,2.957 7.904,6.424 0,4.233 -2.882,5.329 -7.394,5.762 -1.555,0.154 -2.039,0.485 -2.039,1.097 0,0.535 0.408,0.867 1.223,0.867 0.868,0 1.352,-0.536 1.403,-1.326 h 6.271 c -0.306,4.181 -2.881,6.042 -7.648,6.042 -4.844,0 -7.674,-2.549 -7.674,-6.093 0,-3.875 1.861,-5.38 7.291,-5.966 C 0.842,1.913 1.402,1.606 1.402,0.969 1.402,0.408 1.071,0 0,0" /></g><g
           transform="translate(468.7969,372.1467)"
           id="g104"><path
             id="path106"
             style="fill:#ffffff;fill-opacity:1;fill-rule:nonzero;stroke:none"
             d="m 0,0 c -1.377,0 -1.861,0.688 -1.912,1.555 h -6.4 C -8.26,-2.83 -5.201,-4.716 0,-4.716 c 5.252,0 7.904,2.957 7.904,6.424 0,4.233 -2.882,5.329 -7.394,5.762 -1.555,0.154 -2.039,0.485 -2.039,1.097 0,0.535 0.408,0.867 1.223,0.867 0.868,0 1.352,-0.536 1.403,-1.326 h 6.271 c -0.306,4.181 -2.881,6.042 -7.648,6.042 -4.844,0 -7.674,-2.549 -7.674,-6.093 0,-3.875 1.861,-5.38 7.292,-5.966 C 0.842,1.913 1.402,1.606 1.402,0.969 1.402,0.408 1.071,0 0,0" /></g><g
           transform="translate(458.3359,380.841)"
           id="g108"><path
             id="path110"
             style="fill:#ffffff;fill-opacity:1;fill-rule:nonzero;stroke:none"
             d="M 0,0 V 5.175 H -13.614 V -13.054 H 0.383 v 5.176 h -7.24 v 1.631 h 5.404 v 4.692 H -6.857 V 0 Z" /></g><g
           transform="translate(429.708,386.0163)"
           id="g112"><path
             id="path114"
             style="fill:#ffffff;fill-opacity:1;fill-rule:nonzero;stroke:none"
             d="m 0,0 v -18.229 h 12.951 v 5.201 H 6.807 V 0 Z" /></g><g
           transform="translate(414.6943,386.0163)"
           id="g116"><path
             id="path118"
             style="fill:#ffffff;fill-opacity:1;fill-rule:nonzero;stroke:none"
             d="m 0,0 v -18.229 h 12.951 v 5.201 H 6.807 V 0 Z" /></g><g
           transform="translate(395.5039,375.1301)"
           id="g120"><path
             id="path122"
             style="fill:#ffffff;fill-opacity:1;fill-rule:nonzero;stroke:none"
             d="M 0,0 2.192,5.711 H 2.549 L 2.549,0 Z m 16.292,-7.343 v 5.176 H 9.306 v 1.631 h 5.15 v 4.692 h -5.15 v 1.555 h 6.603 v 5.175 H -1.632 L -9.204,-7.343 h 6.399 l 1.122,2.932 h 4.232 v -2.932 z" /></g><g
           transform="translate(386.6719,380.8156)"
           id="g124"><path
             id="path126"
             style="fill:#ffffff;fill-opacity:1;fill-rule:nonzero;stroke:none"
             d="m 0,0 v 5.201 h -13.18 v -18.229 h 6.806 v 5.558 h 5.176 v 4.92 H -6.374 V 0 Z" /></g><g
           transform="translate(574.0908,403.0959)"
           id="g128"><path
             id="path130"
             style="fill:#ffffff;fill-opacity:1;fill-rule:nonzero;stroke:none"
             d="M 0,0 C -2.358,0 -3.188,1.179 -3.275,2.664 H -14.236 C -14.149,-4.848 -8.909,-8.079 0,-8.079 c 8.995,0 13.537,5.066 13.537,11.005 0,7.249 -4.934,9.126 -12.664,9.869 -2.664,0.262 -3.493,0.83 -3.493,1.877 0,0.917 0.698,1.485 2.096,1.485 1.484,0 2.314,-0.917 2.401,-2.27 H 12.62 c -0.524,7.161 -4.934,10.349 -13.1,10.349 -8.297,0 -13.145,-4.367 -13.145,-10.437 0,-6.637 3.187,-9.214 12.489,-10.218 C 1.44,3.275 2.401,2.751 2.401,1.659 2.401,0.698 1.834,0 0,0" /></g><g
           transform="translate(545.3213,411.0871)"
           id="g132"><path
             id="path134"
             style="fill:#ffffff;fill-opacity:1;fill-rule:nonzero;stroke:none"
             d="M 0,0 C 0,-4.847 -1.484,-6.594 -5.415,-6.594 H -6.332 V 6.9 h 0.83 C -1.747,6.9 0,5.633 0,0.349 Z m 12.14,0.262 v 0.306 c 0,10.218 -5.895,15.197 -17.205,15.197 h -12.926 v -31.224 h 12.97 c 11.047,0 17.161,5.415 17.161,15.721" /></g><g
           transform="translate(499.334,417.987)"
           id="g136"><path
             id="path138"
             style="fill:#ffffff;fill-opacity:1;fill-rule:nonzero;stroke:none"
             d="M 0,0 V 8.865 H -23.319 V -22.359 H 0.654 v 8.865 h -12.401 v 2.795 h 9.258 v 8.035 h -9.258 V 0 Z" /></g><g
           transform="translate(390.4375,417.5066)"
           id="g140"><path
             id="path142"
             style="fill:#ffffff;fill-opacity:1;fill-rule:nonzero;stroke:none"
             d="m 0,0 2.446,-9.957 h -4.979 z m 4.367,-17.73 1.048,-4.148 H 17.817 L 8.253,9.345 H -6.725 l -9.607,-31.223 h 10.83 l 1.048,4.148 z" /></g><g
           transform="translate(427.377,415.5852)"
           id="g144"><path
             id="path146"
             style="fill:#ffffff;fill-opacity:1;fill-rule:nonzero;stroke:none"
             d="M 0,0 C 0,-1.834 -1.004,-2.751 -3.274,-2.751 H -4.585 V 2.62 h 1.397 C -1.004,2.62 0,1.877 0,0.175 Z m 6.595,-7.511 c 2.794,1.528 4.585,3.974 4.585,8.078 v 0.175 c 0,6.769 -4.324,10.525 -13.625,10.525 h -13.712 v -31.224 h 11.572 v 9.913 h 0.655 l 4.847,-9.913 h 12.097 z" /></g><g
           transform="translate(460.1279,405.6721)"
           id="g148"><path
             id="path150"
             style="fill:#ffffff;fill-opacity:1;fill-rule:nonzero;stroke:none"
             d="m 0,0 c 0,-1.572 -0.917,-2.533 -2.883,-2.533 h -2.096 v 5.197 h 1.965 C -0.83,2.664 0,1.747 0,0.175 Z m -4.979,13.712 h 2.271 c 1.878,0 2.576,-0.742 2.576,-2.14 V 11.398 C -0.132,10 -0.874,9.389 -2.708,9.389 h -2.271 z m 15.765,-0.917 v 0.175 c 0,4.192 -2.577,8.21 -10.786,8.21 H -16.289 V -10.044 H -0.48 c 8.515,0 11.92,3.232 11.92,8.69 v 0.175 c 0,4.454 -2.794,6.725 -6.244,7.205 3.45,0.743 5.59,2.926 5.59,6.769" /></g><g
           transform="translate(521.7754,407.8991)"
           id="g152"><path
             id="path154"
             style="fill:#ffffff;fill-opacity:1;fill-rule:nonzero;stroke:none"
             d="M 0,0 V 18.953 H -11.66 V 0 c 0,-2.708 -1.485,-3.493 -3.581,-3.493 -1.703,0 -2.62,0.218 -3.624,0.48 v -8.472 c 1.484,-0.742 3.144,-1.179 6.376,-1.179 C -3.8,-12.664 0,-8.166 0,0" /></g><g
           transform="translate(525.8164,380.5603)"
           id="g156"><path
             id="path158"
             style="fill:#ffffff;fill-opacity:1;fill-rule:nonzero;stroke:none"
             d="m 0,0 1.429,-5.813 h -2.908 z m -2.6,-10.351 h 5.15 l 0.612,-2.422 h 7.24 L 4.819,5.456 h -8.745 l -5.609,-18.229 h 6.323 z" /></g><g
           transform="translate(583.4746,367.821)"
           id="g160"><path
             id="path162"
             style="fill:#ffffff;fill-opacity:1;fill-rule:nonzero;stroke:none"
             d="m 0,0 v 13.028 h 4.41 v 5.201 h -15.653 v -5.201 h 4.41 V 0 Z" /></g></g></g></g></svg>